<svg width="94" height="74" viewBox="0 0 94 74" fill="none" xmlns="http://www.w3.org/2000/svg">
<g filter="url(#filter0_f_2_63)">
<path d="M28.9655 54.6752C29.5098 54.6821 35.0263 63.295 35.0263 66.6424C35.0263 68.2498 34.3877 69.7914 33.2511 70.928C32.1145 72.0646 30.5729 72.7032 28.9655 72.7032C27.3581 72.7032 25.8165 72.0646 24.6799 70.928C23.5433 69.7914 22.9048 68.2498 22.9048 66.6424C22.9048 63.295 28.4217 54.6692 28.9655 54.6752Z" fill="#42A0F0"/>
<path d="M24.3444 68.9081C24.95 69.0932 25.7197 68.3315 26.0636 67.2068C26.4074 66.0821 26.1953 65.0202 25.5897 64.8351C24.9841 64.6499 24.2144 65.4116 23.8705 66.5363C23.5267 67.661 23.7389 68.7229 24.3444 68.9081Z" fill="white"/>
<path d="M62.3 54.6752C62.8443 54.6821 68.3607 63.295 68.3607 66.6424C68.3607 68.2498 67.7222 69.7914 66.5856 70.928C65.449 72.0646 63.9074 72.7032 62.3 72.7032C60.6926 72.7032 59.151 72.0646 58.0144 70.928C56.8778 69.7914 56.2393 68.2498 56.2393 66.6424C56.2393 63.295 61.7561 54.6692 62.3 54.6752Z" fill="#42A0F0"/>
<path d="M57.6788 68.9081C58.2844 69.0932 59.0541 68.3315 59.3979 67.2068C59.7418 66.0821 59.5296 65.0202 58.924 64.8351C58.3184 64.6499 57.5488 65.4116 57.2049 66.5363C56.861 67.661 57.0732 68.7229 57.6788 68.9081Z" fill="white"/>
<path d="M44.3748 36.6593C44.9191 36.6662 50.4356 45.2791 50.4356 48.6265C50.4356 50.2339 49.797 51.7755 48.6604 52.9121C47.5238 54.0487 45.9822 54.6873 44.3748 54.6873C42.7674 54.6873 41.2258 54.0487 40.0892 52.9121C38.9526 51.7755 38.3141 50.2339 38.3141 48.6265C38.3141 45.2791 43.831 36.6533 44.3748 36.6593Z" fill="#42A0F0"/>
<path d="M39.7536 50.8922C40.3592 51.0773 41.1289 50.3156 41.4728 49.1909C41.8166 48.0662 41.6045 47.0043 40.9989 46.8192C40.3933 46.634 39.6236 47.3957 39.2797 48.5204C38.9359 49.6452 39.148 50.707 39.7536 50.8922Z" fill="white"/>
</g>
<g filter="url(#filter1_df_2_63)">
<g filter="url(#filter2_d_2_63)">
<path d="M56.2376 56.2535C55.7782 56.2904 55.3144 56.309 54.846 56.3093H22.1714C19.9223 56.3177 17.6937 55.882 15.6133 55.0271C13.533 54.1722 11.642 52.915 10.0486 51.3276C8.45531 49.7402 7.19106 47.8538 6.32842 45.7767C5.46578 43.6996 5.02173 41.4726 5.02173 39.2235C5.02173 36.9744 5.46578 34.7474 6.32842 32.6703C7.19106 30.5932 8.45531 28.7068 10.0486 27.1194C11.642 25.532 13.533 24.2748 15.6133 23.4199C17.6937 22.565 19.9223 22.1293 22.1714 22.1377H34.3542C38.3039 13.4477 47.4006 7.36538 57.9908 7.36538C72.2052 7.36538 83.7284 18.3219 83.7284 31.8374C83.7284 45.3528 72.2052 56.3093 57.9908 56.3093C57.4015 56.3093 56.8171 56.2907 56.2376 56.2535Z" fill="url(#paint0_linear_2_63)"/>
<path d="M57.9904 56.0718C59.7215 56.0718 61.4514 55.906 63.1321 55.579C64.7699 55.2603 66.3808 54.7848 67.9201 54.1658C69.4313 53.558 70.8888 52.8058 72.2522 51.93C73.6025 51.0626 74.8722 50.0666 76.0261 48.9695C77.1797 47.8726 78.227 46.6656 79.1389 45.3822C80.0593 44.0868 80.8499 42.702 81.4885 41.2663C82.1389 39.8044 82.6383 38.2745 82.973 36.7192C83.3165 35.1234 83.4906 33.4809 83.4906 31.8373C83.4906 30.1937 83.3165 28.5512 82.973 26.9554C82.6383 25.4001 82.1389 23.8703 81.4885 22.4083C80.8499 20.9727 80.0593 19.5879 79.1389 18.2925C78.227 17.0091 77.1797 15.8022 76.0261 14.7053C74.8722 13.6082 73.6025 12.6121 72.2522 11.7447C70.8888 10.8689 69.4313 10.1167 67.9201 9.50896C66.3808 8.8899 64.7699 8.41444 63.1321 8.09579C61.4514 7.76878 59.7215 7.60298 57.9904 7.60298C52.9129 7.60298 48.0092 9.0172 43.8095 11.6928C41.7851 12.9825 39.9659 14.5392 38.4026 16.3197C36.8293 18.1115 35.5399 20.102 34.5701 22.2359L34.5068 22.3752H34.3538H22.1711C19.8965 22.3752 17.69 22.8206 15.6131 23.6991C14.6148 24.1214 13.6519 24.644 12.7512 25.2525C11.859 25.8552 11.02 26.5475 10.2576 27.31C9.49508 28.0724 8.80285 28.9114 8.20009 29.8036C7.59159 30.7043 7.06897 31.6672 6.64673 32.6654C5.76823 34.7424 5.3228 36.9489 5.3228 39.2235C5.3228 41.4981 5.76823 43.7045 6.64673 45.7815C7.06897 46.7798 7.59159 47.7426 8.20009 48.6433C8.80285 49.5355 9.49508 50.3745 10.2576 51.137C11.02 51.8995 11.859 52.5917 12.7512 53.1945C13.6519 53.803 14.6148 54.3256 15.6131 54.7478C17.69 55.6263 19.8965 56.0718 22.1711 56.0718H54.8458C55.3027 56.0718 55.7645 56.0532 56.2184 56.0167L56.2355 56.0153L56.2526 56.0164C56.8274 56.0531 57.4121 56.0718 57.9904 56.0718ZM57.9904 56.3094C57.4013 56.3094 56.8167 56.2905 56.2374 56.2535C55.7787 56.2904 55.314 56.3094 54.8458 56.3094H22.1711C12.7349 56.3094 5.08521 48.6597 5.08521 39.2235C5.08521 29.7872 12.7349 22.1376 22.1711 22.1376H34.3538C38.3036 13.4467 47.3998 7.36538 57.9904 7.36538C72.205 7.36538 83.7282 18.322 83.7282 31.8373C83.7282 45.3528 72.205 56.3094 57.9904 56.3094Z" fill="white" fill-opacity="0.5"/>
</g>
</g>
<defs>
<filter id="filter0_f_2_63" x="21.9544" y="35.7089" width="47.3567" height="37.9446" filterUnits="userSpaceOnUse" color-interpolation-filters="sRGB">
<feFlood flood-opacity="0" result="BackgroundImageFix"/>
<feBlend mode="normal" in="SourceGraphic" in2="BackgroundImageFix" result="shape"/>
<feGaussianBlur stdDeviation="0.475184" result="effect1_foregroundBlur_2_63"/>
</filter>
<filter id="filter1_df_2_63" x="0.269888" y="0.712806" width="92.9622" height="63.1996" filterUnits="userSpaceOnUse" color-interpolation-filters="sRGB">
<feFlood flood-opacity="0" result="BackgroundImageFix"/>
<feColorMatrix in="SourceAlpha" type="matrix" values="0 0 0 0 0 0 0 0 0 0 0 0 0 0 0 0 0 0 127 0" result="hardAlpha"/>
<feOffset dx="2.37592" dy="0.475184"/>
<feGaussianBlur stdDeviation="3.56388"/>
<feColorMatrix type="matrix" values="0 0 0 0 0.258824 0 0 0 0 0.627451 0 0 0 0 0.941176 0 0 0 0.596 0"/>
<feBlend mode="normal" in2="BackgroundImageFix" result="effect1_dropShadow_2_63"/>
<feBlend mode="normal" in="SourceGraphic" in2="effect1_dropShadow_2_63" result="shape"/>
<feGaussianBlur stdDeviation="0.475184" result="effect2_foregroundBlur_2_63"/>
</filter>
<filter id="filter2_d_2_63" x="0.269888" y="0.712806" width="92.9622" height="63.1996" filterUnits="userSpaceOnUse" color-interpolation-filters="sRGB">
<feFlood flood-opacity="0" result="BackgroundImageFix"/>
<feColorMatrix in="SourceAlpha" type="matrix" values="0 0 0 0 0 0 0 0 0 0 0 0 0 0 0 0 0 0 127 0" result="hardAlpha"/>
<feOffset dx="2.37592" dy="0.475184"/>
<feGaussianBlur stdDeviation="3.56388"/>
<feColorMatrix type="matrix" values="0 0 0 0 0.501961 0 0 0 0 0.501961 0 0 0 0 0.501961 0 0 0 0.302 0"/>
<feBlend mode="normal" in2="BackgroundImageFix" result="effect1_dropShadow_2_63"/>
<feBlend mode="normal" in="SourceGraphic" in2="effect1_dropShadow_2_63" result="shape"/>
</filter>
<linearGradient id="paint0_linear_2_63" x1="36.8979" y1="13.5323" x2="52.589" y2="58.9627" gradientUnits="userSpaceOnUse">
<stop stop-color="white" stop-opacity="0.596"/>
<stop offset="1" stop-color="#F7F7F7" stop-opacity="0.204"/>
</linearGradient>
</defs>
</svg>
